<svg xmlns="http://www.w3.org/2000/svg" width="364" height="244" viewBox="0 0 364 244"><defs><style>.a{opacity:0.7;}.b{fill:#a0616a;}.c{fill:#ccc;}.d{fill:#31305d;}.e{fill:#2f2e41;}.f{fill:#3f3d56;}.g{fill:#e6e6e6;}.h{fill:#a09fbe;}</style></defs><g class="a" transform="translate(-71.431 -22.082)"><path class="b" d="M850.75,548.552a5.726,5.726,0,0,0,.456-8.768l8.206-18.619-10.425,1.767-6.194,17.41a5.757,5.757,0,0,0,7.957,8.21Z" transform="translate(-504.224 -375.912)"/><path class="c" d="M867.932,423.924l-2.987-.6a6.74,6.74,0,0,0-3.584,7.169c.6,5.376-8.363,34.051-8.363,34.051l-8.065,23.9,11.35,2.39,7.467-27.48Z" transform="translate(-505.718 -333.657)"/><path class="d" d="M856.37,572.811h-64.91a4.845,4.845,0,0,1-4.84-4.84v-6.263a4.845,4.845,0,0,1,4.84-4.84h64.91a4.846,4.846,0,0,1,4.84,4.84v6.263a4.846,4.846,0,0,1-4.84,4.84Z" transform="translate(-480.631 -391.324)"/><path class="b" d="M752.388,520.4l-6.549,2.417L733.4,498.709l9.665-3.568Z" transform="translate(-380.497 -270.393)"/><path class="e" d="M8.476,0H21.939V8.476H0A8.476,8.476,0,0,1,8.476,0Z" transform="translate(352.016 255.215) rotate(-20.261)"/><path class="b" d="M781.87,536.416,774.9,536.1l-2.1-27.048,10.292.468Z" transform="translate(-397.634 -276.384)"/><path class="e" d="M761.141,552.85H774.6v8.476H752.665A8.476,8.476,0,0,1,761.141,552.85Z" transform="translate(-388.964 -295.244)"/><path class="e" d="M861,528.39h0a36.772,36.772,0,0,0-9.045,22.24l-2.305,42.874,20.311,35.843,11.35-5.974-13.74-26.882,8.363-25.687,22.7-17.922L896.848,527.2Z" transform="translate(-507.949 -378.789)"/><path class="e" d="M776.924,401.982l5.974,2.39-4.779,82.439-13.74-1.792L760.2,422.293Z" transform="translate(-392.207 -230.278)"/><path class="b" d="M902.8,538.707a5.726,5.726,0,0,1,7.618-4.363l12.913-15.724,3.127,10.1L913.712,542.1a5.757,5.757,0,0,1-10.917-3.4Z" transform="translate(-530.79 -374.809)"/><ellipse class="b" cx="13.985" cy="13.985" rx="13.985" ry="13.985" transform="translate(362.786 52.699)"/><path class="c" d="M911.835,423.069s-16.129-15.233-38.233-3.584c0,0-5.675,57.648-9.26,63.621,0,0,31.064-4.182,39.427-1.792,0,0,0-25.09,5.376-34.648S911.835,423.069,911.835,423.069Z" transform="translate(-514.274 -330.096)"/><path class="c" d="M930.411,430.8l6.555-1.211a16.772,16.772,0,0,1,7.185,8.38c2.389,5.974,8.961,35.246,8.961,35.246l-25.687,25.688-5.377-7.766,16.129-21.506-8.363-17.922Z" transform="translate(-539.123 -336.371)"/><path class="e" d="M913.85,373.676a1.215,1.215,0,0,0-1.057-1.605,2.808,2.808,0,0,0-1.979.977,7.875,7.875,0,0,1-1.749,1.5,1.5,1.5,0,0,1-1.98-.358,2.754,2.754,0,0,1,.105-2.137,21.013,21.013,0,0,0,.928-5.563,9.794,9.794,0,0,0-1.4-5.949c-1.505-2.121-4.2-2.926-6.745-2.868a45.329,45.329,0,0,0-7.577,1.342,2.545,2.545,0,0,1-2.478-.416c-.619-.718-.392-1.88-.128-2.849.684-2.515,1.409-5.116,3-7.147a10.761,10.761,0,0,1,6.867-3.866,16.478,16.478,0,0,1,7.665.87,20.552,20.552,0,0,1,10.068,7.014,16.647,16.647,0,0,1,3.176,12.3,15.184,15.184,0,0,1-5.629,9.6" transform="translate(-525.118 -299.51)"/><path class="f" d="M393.4,236.153H191.849a4.233,4.233,0,0,1-4.228-4.228V217.36a4.233,4.233,0,0,1,4.228-4.228H393.4a4.233,4.233,0,0,1,4.229,4.228v14.565A4.233,4.233,0,0,1,393.4,236.153ZM191.849,214.072a3.292,3.292,0,0,0-3.289,3.289v14.565a3.292,3.292,0,0,0,3.289,3.289H393.4a3.293,3.293,0,0,0,3.289-3.289V217.36a3.293,3.293,0,0,0-3.289-3.289Z" transform="translate(-116.19 -191.05)"/><path class="f" d="M271.72,319.154H191.849a4.233,4.233,0,0,1-4.228-4.228V300.36a4.233,4.233,0,0,1,4.228-4.228H271.72a4.233,4.233,0,0,1,4.228,4.228v14.565A4.233,4.233,0,0,1,271.72,319.154Zm-79.871-22.082a3.292,3.292,0,0,0-3.289,3.289v14.565a3.292,3.292,0,0,0,3.289,3.289H271.72a3.293,3.293,0,0,0,3.289-3.289V300.36a3.292,3.292,0,0,0-3.289-3.289Z" transform="translate(-116.19 -235.17)"/><path class="f" d="M530.72,319.154h-79.87a4.233,4.233,0,0,1-4.228-4.228V300.36a4.233,4.233,0,0,1,4.228-4.228h79.87a4.233,4.233,0,0,1,4.228,4.228v14.565a4.233,4.233,0,0,1-4.228,4.228Zm-79.87-22.082a3.292,3.292,0,0,0-3.289,3.289v14.565a3.292,3.292,0,0,0,3.289,3.289H530.72a3.293,3.293,0,0,0,3.289-3.289V300.36a3.293,3.293,0,0,0-3.289-3.289Z" transform="translate(-253.912 -235.17)"/><path class="g" d="M561.175,526.287h-53.56a4,4,0,0,1-3.994-3.994v-5.168a4,4,0,0,1,3.994-3.994h53.56a4,4,0,0,1,3.994,3.994v5.168A4,4,0,0,1,561.175,526.287Z" transform="translate(-284.177 -350.501)"/><path class="g" d="M211.38,388.649a3.759,3.759,0,1,1,3.759-3.759,3.759,3.759,0,0,1-3.759,3.759Zm0-6.578a2.819,2.819,0,1,0,2.819,2.819,2.819,2.819,0,0,0-2.819-2.819Z" transform="translate(-126.793 -280.337)"/><path class="g" d="M211.38,414.649a3.759,3.759,0,1,1,3.759-3.759,3.759,3.759,0,0,1-3.759,3.759Zm0-6.578a2.819,2.819,0,1,0,2.819,2.819A2.819,2.819,0,0,0,211.38,408.072Z" transform="translate(-126.793 -294.156)"/><path class="f" d="M211.621,441.132a4,4,0,1,1,4-4,4,4,0,0,1-4,4Zm0-7a3,3,0,1,0,3,3A3,3,0,0,0,211.621,434.132Z" transform="translate(-127.19 -308.05)"/><path class="g" d="M251.175,382.632a3.054,3.054,0,1,0,0,6.108h43.694a3.054,3.054,0,1,0,0-6.108Z" transform="translate(-148.265 -281.133)"/><path class="g" d="M251.175,408.632a3.054,3.054,0,1,0,0,6.108h43.694a3.054,3.054,0,1,0,0-6.108Z" transform="translate(-148.265 -294.951)"/><path class="g" d="M251.175,434.632a3.054,3.054,0,1,0,0,6.108h43.694a3.054,3.054,0,1,0,0-6.108Z" transform="translate(-148.265 -308.769)"/><path class="g" d="M470.88,388.649a3.759,3.759,0,1,1,3.759-3.759A3.759,3.759,0,0,1,470.88,388.649Zm0-6.578a2.819,2.819,0,1,0,2.819,2.819,2.819,2.819,0,0,0-2.819-2.819Z" transform="translate(-264.713 -280.337)"/><path class="f" d="M470.88,414.649a3.759,3.759,0,1,1,3.759-3.759,3.759,3.759,0,0,1-3.759,3.759Zm0-6.578a2.819,2.819,0,1,0,2.819,2.819,2.819,2.819,0,0,0-2.819-2.819Z" transform="translate(-264.713 -294.156)"/><path class="g" d="M470.88,440.649a3.759,3.759,0,1,1,3.759-3.759A3.759,3.759,0,0,1,470.88,440.649Zm0-6.578a2.819,2.819,0,1,0,2.819,2.819,2.819,2.819,0,0,0-2.819-2.819Z" transform="translate(-264.713 -307.974)"/><path class="g" d="M470.88,466.649a3.759,3.759,0,1,1,3.759-3.759A3.759,3.759,0,0,1,470.88,466.649Zm0-6.578a2.819,2.819,0,1,0,2.819,2.819,2.819,2.819,0,0,0-2.819-2.819Z" transform="translate(-264.713 -321.792)"/><path class="g" d="M509.675,382.632a3.054,3.054,0,1,0,0,6.108h43.694a3.054,3.054,0,1,0,0-6.108Z" transform="translate(-285.755 -281.133)"/><path class="g" d="M509.675,408.632a3.054,3.054,0,1,0,0,6.108h43.694a3.054,3.054,0,1,0,0-6.108Z" transform="translate(-285.755 -294.951)"/><path class="g" d="M509.675,434.632a3.054,3.054,0,1,0,0,6.108h43.694a3.054,3.054,0,1,0,0-6.108Z" transform="translate(-285.755 -308.769)"/><path class="g" d="M509.675,460.632a3.054,3.054,0,1,0,0,6.108h43.694a3.054,3.054,0,1,0,0-6.108Z" transform="translate(-285.755 -322.587)"/><path class="g" d="M212.3,314.132a3.054,3.054,0,0,0,0,6.108h52.151a3.054,3.054,0,0,0,0-6.108Z" transform="translate(-127.656 -244.728)"/><path class="h" d="M212.3,231.132a3.054,3.054,0,0,0,0,6.108h52.151a3.054,3.054,0,0,0,0-6.108Z" transform="translate(-127.656 -200.593)"/><path class="d" d="M344.739,316.456a.235.235,0,0,0-.2.352l1.994,3.454a.235.235,0,0,0,.407,0l1.994-3.454a.235.235,0,0,0-.2-.352Z" transform="translate(-199.554 -245.962)"/><path class="g" d="M471.3,314.132a3.054,3.054,0,1,0,0,6.108h52.151a3.054,3.054,0,1,0,0-6.108Z" transform="translate(-265.369 -244.728)"/><path class="d" d="M603.739,316.456a.235.235,0,0,0-.2.352l1.994,3.454a.235.235,0,0,0,.407,0l1.994-3.454a.235.235,0,0,0-.2-.352Z" transform="translate(-337.181 -245.962)"/><circle class="d" cx="1.879" cy="1.879" r="1.879" transform="translate(204.286 114.854)"/><circle class="d" cx="2" cy="2" r="2" transform="translate(82.431 127.082)"/><path class="f" d="M892.747,732.605H742.265a.559.559,0,0,1,0-1.119H892.747a.559.559,0,1,1,0,1.119Z" transform="translate(-457.876 -466.524)"/></g></svg>