<svg xmlns="http://www.w3.org/2000/svg" width="397" height="266" viewBox="0 0 397 266"><defs><style>.a{opacity:0.7;}.b{fill:#3f3d56;}.c{fill:#ffb9b9;}.d{fill:#2f2e41;}.e{fill:#a09fbe;}.f{fill:#31305d;}.g{fill:#fff;}.h{fill:#f2f2f2;}</style></defs><g class="a"><rect class="b" width="168.939" height="0.738" transform="translate(228.061 265.262)"/><rect class="b" width="168.939" height="0.738" transform="translate(215.138 254.554)"/><rect class="b" width="168.939" height="0.738" transform="translate(161.637 243.846)"/><path class="b" d="M225.577,332.291c-1.024,0-2.059-.016-3.075-.048l.023-.738c1.459.045,2.947.058,4.412.038l.01.738Q226.264,332.29,225.577,332.291Zm5.814-.171-.043-.737c1.461-.086,2.94-.207,4.4-.36l.077.734c-1.468.154-2.959.276-4.431.363ZM218.063,332c-1.473-.113-2.961-.261-4.424-.44l.09-.733c1.452.178,2.929.325,4.39.437Zm22.168-.812-.111-.73c1.451-.22,2.914-.476,4.346-.76l.144.724c-1.443.287-2.916.545-4.379.766Zm-30.991-.27c-1.455-.247-2.924-.53-4.365-.843l.157-.722c1.431.311,2.888.592,4.332.837Zm39.71-1.463-.177-.717c1.425-.352,2.857-.742,4.258-1.157l.21.708c-1.411.419-2.855.811-4.29,1.166Zm-48.4-.423c-1.427-.38-2.864-.8-4.269-1.242l.222-.7c1.395.441,2.82.855,4.236,1.232Zm56.919-2.105-.242-.7c1.382-.481,2.773-1,4.133-1.545l.274.686c-1.37.548-2.772,1.072-4.165,1.556Zm-65.407-.578c-1.386-.509-2.781-1.059-4.146-1.634l.287-.681c1.354.57,2.738,1.116,4.114,1.622Zm73.652-2.721-.306-.672c1.328-.6,2.662-1.247,3.966-1.914l.336.658c-1.314.672-2.659,1.32-4,1.928Zm7.9-4.039-.366-.641c1.273-.727,2.544-1.49,3.777-2.27l.395.624c-1.242.786-2.522,1.556-3.806,2.288Zm7.5-4.747-.423-.605c1.2-.838,2.4-1.715,3.556-2.607l.45.586c-1.169.9-2.375,1.783-3.583,2.626Zm-112.55-1.04c-1.192-.866-2.382-1.773-3.539-2.7l.461-.577c1.148.916,2.329,1.816,3.512,2.675Zm119.594-4.374-.476-.565c1.117-.943,2.229-1.925,3.306-2.921l.5.542c-1.084,1-2.205,1.993-3.331,2.943Zm-126.545-1.176c-1.11-.972-2.213-1.983-3.278-3.005l.511-.533c1.057,1.015,2.151,2.018,3.253,2.983Zm133.07-4.859-.526-.518c1.03-1.044,2.049-2.124,3.028-3.211l.549.494c-.987,1.1-2.013,2.183-3.052,3.235Zm-139.485-1.3c-1.018-1.071-2.024-2.178-2.99-3.29l.558-.484c.958,1.1,1.956,2.2,2.967,3.265Zm145.437-5.309-.57-.469c.931-1.133,1.847-2.3,2.724-3.474l.591.442C302.5,294.472,301.581,295.65,300.643,296.791Zm-151.262-1.4c-.915-1.156-1.815-2.349-2.677-3.546l.6-.431c.855,1.188,1.749,2.372,2.657,3.52Zm156.589-5.722-.611-.415c.824-1.213,1.63-2.461,2.4-3.71l.63.387C307.613,287.187,306.8,288.445,305.971,289.667Zm-161.778-1.488c-.8-1.234-1.592-2.5-2.341-3.773l.636-.375c.743,1.261,1.525,2.521,2.323,3.745Zm166.436-6.1-.646-.357c.709-1.283,1.4-2.6,2.048-3.916l.662.327C312.037,279.462,311.343,280.79,310.629,282.083Zm3.943-7.983-.676-.3c.588-1.344,1.153-2.72,1.68-4.09l.689.265C315.735,271.359,315.165,272.745,314.572,274.1ZM135.9,272.506c-.566-1.359-1.108-2.749-1.611-4.132l.694-.252c.5,1.373,1.037,2.752,1.6,4.1Zm181.864-6.726-.7-.232c.461-1.389.9-2.808,1.292-4.219l.711.2c-.4,1.422-.839,2.852-1.3,4.251Zm-184.9-1.618c-.439-1.407-.852-2.845-1.227-4.274l.714-.187c.372,1.418.782,2.845,1.218,4.241Zm187.3-6.94-.719-.167c.331-1.423.633-2.877.9-4.319l.726.133c-.268,1.454-.572,2.918-.906,4.353Zm-189.56-1.659c-.308-1.442-.587-2.912-.828-4.368l.728-.121c.24,1.446.517,2.9.822,4.335Zm191.169-7.083-.732-.1c.2-1.446.366-2.921.5-4.384l.736.066c-.133,1.474-.3,2.96-.5,4.417Zm-192.624-1.686c-.174-1.462-.317-2.951-.425-4.425l.737-.054c.107,1.464.249,2.941.422,4.392Zm193.427-7.166-.738-.033c.066-1.463.1-2.947.1-4.411h.738c0,1.475-.034,2.97-.1,4.444Zm-194.076-1.7c-.025-.905-.038-1.829-.038-2.745q0-.852.015-1.7l.738.013q-.015.843-.015,1.689c0,.909.013,1.826.038,2.725Zm.89-8.842-.737-.046c.092-1.475.219-2.966.378-4.429l.734.079c-.158,1.453-.284,2.932-.375,4.4Zm192.07-4.505c-.147-1.456-.35-2.166-.565-3.615l.731-.108c.216,1.461.4,2.575.549,4.042Zm-191.121-4.265-.73-.113c.226-1.461.489-2.933.781-4.377l.724.146c-.29,1.432-.551,2.894-.775,4.343Zm189.811-3.7c-.282-1.44-.6-2.891-.945-4.31l.718-.174c.348,1.43.668,2.891.952,4.343ZM132.1,211.67l-.716-.18c.359-1.43.756-2.872,1.181-4.286l.707.212C132.848,208.82,132.454,210.251,132.1,211.67Zm185.975-3.623c-.412-1.406-.862-2.82-1.337-4.2l.7-.24c.48,1.395.933,2.82,1.348,4.237ZM134.64,203.21l-.7-.245c.491-1.4,1.021-2.8,1.575-4.169l.685.277c-.55,1.36-1.076,2.752-1.563,4.137ZM315.2,199.7c-.539-1.359-1.116-2.723-1.715-4.054l.674-.3c.6,1.341,1.185,2.716,1.728,4.085Zm-177.251-4.69-.671-.308c.617-1.343,1.273-2.69,1.951-4l.656.339C139.217,192.344,138.566,193.681,137.954,195.014Zm173.637-3.336c-.661-1.3-1.361-2.61-2.081-3.882l.643-.364c.726,1.282,1.431,2.6,2.1,3.912Zm-169.583-4.516-.64-.368c.737-1.279,1.514-2.56,2.309-3.805l.622.4C143.509,184.622,142.738,185.893,142.007,187.162Zm165.245-3.151c-.78-1.242-1.6-2.48-2.428-3.678l.606-.421c.838,1.208,1.661,2.455,2.447,3.706ZM146.76,179.719l-.6-.426c.851-1.207,1.741-2.411,2.646-3.577l.583.453C148.488,177.326,147.6,178.521,146.76,179.719Zm155.469-2.951c-.89-1.166-1.817-2.324-2.755-3.444l.566-.474c.945,1.128,1.879,2.3,2.776,3.47Zm-150.059-4.024-.562-.479c.955-1.122,1.951-2.239,2.959-3.32l.54.5C154.107,170.522,153.119,171.63,152.171,172.744Zm144.394-2.735c-.992-1.08-2.021-2.15-3.058-3.18l.521-.524c1.045,1.039,2.082,2.117,3.081,3.2Zm-138.374-3.716-.516-.528c1.056-1.033,2.149-2.054,3.248-3.035l.492.551c-1.091.973-2.175,1.987-3.223,3.012Zm132.117-2.5c-1.087-.986-2.21-1.958-3.336-2.89l.471-.569c1.135.939,2.266,1.919,3.361,2.912ZM164.77,160.418l-.466-.573c1.142-.93,2.322-1.847,3.508-2.726l.44.593c-1.177.872-2.349,1.783-3.482,2.706Zm7.083-5.249-.412-.613c1.222-.822,2.481-1.628,3.74-2.394l.384.631C174.315,153.553,173.066,154.352,171.853,155.168Zm7.528-4.579-.354-.648c1.293-.708,2.619-1.394,3.941-2.041l.325.663c-1.312.642-2.628,1.323-3.911,2.025Zm89.121-1.711c-1.314-.655-2.66-1.287-4-1.88l.3-.675c1.351.6,2.708,1.234,4.032,1.894Zm-81.211-2.158-.294-.678c1.351-.586,2.734-1.148,4.109-1.67l.262.691c-1.365.518-2.736,1.075-4.077,1.657Zm73.126-1.416c-1.367-.53-2.767-1.036-4.16-1.5l.235-.7c1.4.471,2.814.981,4.191,1.515Zm-64.89-1.712-.23-.7c1.4-.46,2.835-.893,4.255-1.287l.2.711C198.34,142.706,196.919,143.136,195.527,143.593Zm56.515-1.1c-1.408-.4-2.845-.775-4.27-1.111l.169-.719c1.436.338,2.883.715,4.3,1.12Zm-48.015-1.261-.164-.72c1.439-.329,2.9-.628,4.356-.89l.131.727c-1.44.26-2.894.557-4.322.883Zm39.429-.763c-1.438-.27-2.9-.51-4.354-.714l.1-.731c1.462.205,2.938.447,4.387.719Zm-30.748-.8-.1-.732c1.462-.2,2.948-.359,4.418-.487l.064.736c-1.459.127-2.934.29-4.385.484Zm22.012-.424c-1.455-.137-2.935-.243-4.4-.314l.036-.738c1.477.072,2.968.178,4.434.316ZM221.5,138.9l-.031-.738c1.357-.057,2.74-.085,4.112-.086h.334l0,.738h-.332c-1.361,0-2.733.029-4.08.085Z" transform="translate(-104.008 -119.771)"/><path class="c" d="M829.539,321.862l-1.846,12.554s-8.123,16.246-2.954,32.861l6.646-4.062s5.169-19.938,5.169-21.415,2.215-18.831,2.215-18.831Z" transform="translate(-542.204 -236.068)"/><path class="d" d="M832.387,430.862l-8.862,5.908,4.431,21.784s1.108,29.538.739,30.646-7.015,46.154-7.015,46.154,7.754,3.692,14.769,1.477c0,0,7.015-33.231,7.015-42.83l8.123-33.6,12.554,38.4s.739,25.846,2.215,34.338,1.477,9.6,1.477,9.6,11.815,3.323,14.769,0c0,0-1.477-43.569-2.584-48l-2.585-52.8Z" transform="translate(-541.393 -305.404)"/><path class="d" d="M791.515,713.514s-.738-1.108-2.954,1.846-9.231,8.492-9.231,8.492-19.2,13.661-4.8,14.4,16.984-6.646,16.984-6.646,12.185-2.215,12.554-4.8-1.477-12.923-1.477-12.923Z" transform="translate(-508.239 -483.565)"/><path class="d" d="M945.3,731.862s-2.585,8.861-1.846,12.554-1.477,17.354,8.861,16.246,7.015-12.923,7.015-12.923L956.006,732.6Z" transform="translate(-618.121 -495.267)"/><circle class="c" cx="12.185" cy="12.185" r="12.185" transform="translate(300.434 19.887)"/><path class="c" d="M889.679,189.708s3.692,12.923.738,17.723,19.938.738,21.415-3.692c0,0-7.385-8.123-6.277-15.877Z" transform="translate(-584.262 -151.175)"/><path class="e" d="M861.421,231.615s10.107.683,15.023-4.828l18.208,7.781L886.9,277.4s15.508,36.184,1.477,39.507-54.646,0-52.8-12.185,9.231-26.954,9.231-26.954,1.846-16.246-2.215-23.631-1.477-15.877-1.477-15.877l16.253-10.768S858.1,231.615,861.421,231.615Z" transform="translate(-550.12 -176.005)"/><path class="e" d="M843.756,258.862h-4.431s-5.169,1.108-4.062,15.138l-2.585,9.969s12.923,3.323,14.769,1.477S843.756,258.862,843.756,258.862Z" transform="translate(-548.299 -196.209)"/><path class="c" d="M975.441,318.862l-1.477,12.923s1.846,16.984-4.431,30.277l-2.215,6.646s-2.215,19.2-8.123,19.2,0-21.785,0-21.785l2.954-21.784s2.215-8.492.739-12.185-1.846-11.446-1.846-11.446Z" transform="translate(-626.478 -234.215)"/><path class="d" d="M880.614,131.035a48.725,48.725,0,0,1,5.46-.541,8.221,8.221,0,0,1,3.9.523c1.805.86,2.817,2.8,3.479,4.69s1.132,3.9,2.36,5.481c2.044-2.133,2.452-5.305,2.757-8.244.214-2.067.4-4.271-.552-6.117a9.669,9.669,0,0,0-2.544-2.841c-4.7-3.909-10.661-6.985-16.708-6.107l-.142.934a16.675,16.675,0,0,0-3.084.194l.216,2.316-3.212.2-.123,2.414-3.248.113a3.764,3.764,0,0,0,1.133,2.447,4.576,4.576,0,0,1-1.668.754c.542,2.1,1.068,4.2,1.627,6.291.412,1.541.339,2.9,1.992,2.151,1.259-.573,2.11-2.394,3.383-3.146A13.933,13.933,0,0,1,880.614,131.035Z" transform="translate(-570.99 -106.936)"/><path class="e" d="M970.325,248.862h5.169s8.492,28.431,7.015,28.8-18.831,1.477-18.831,1.477Z" transform="translate(-630.963 -189.89)"/><circle class="f" cx="29.908" cy="29.908" r="29.908" transform="translate(89.674 83.379)"/><path class="g" d="M310.622,272.739H294.745V256.862h-5.908v15.877H272.961v5.908h15.877v15.877h5.908V278.646h15.877Z" transform="translate(-172.212 -162.415)"/><rect class="h" width="40.672" height="47.384" transform="translate(26.44 163.48)"/><path class="b" d="M189.618,565.453H132.757V508.592h56.861Zm-56.071-.79h55.282V509.382H133.547Z" transform="translate(-106.712 -354.185)"/><rect class="b" width="34.749" height="0.79" transform="translate(37.891 171.08)"/><rect class="b" width="34.749" height="0.79" transform="translate(37.891 179.736)"/><rect class="b" width="34.749" height="0.79" transform="translate(37.891 188.393)"/><rect class="h" width="81.969" height="40.676" transform="translate(82.966 8.431)"/><path class="b" d="M384.962,137.977H286.009V88.5h98.953Zm-98.215-.738h97.476v-48H286.747Z" transform="translate(-203.415 -88.5)"/><rect class="b" width="53.146" height="0.738" transform="translate(97.374 20.646)"/><rect class="b" width="53.146" height="0.738" transform="translate(97.374 28.4)"/><rect class="b" width="53.146" height="0.738" transform="translate(97.374 36.154)"/><rect class="h" width="35.077" height="37.292" transform="translate(195.607 110.626)"/><path class="b" d="M635.486,415.669H591.179V371.362h44.307Zm-43.569-.738h42.83V372.1h-42.83Z" transform="translate(-395.943 -267.368)"/><rect class="b" width="24.369" height="0.738" transform="translate(200.961 124.118)"/><rect class="b" width="24.369" height="0.738" transform="translate(200.961 128.901)"/><rect class="b" width="24.369" height="0.738" transform="translate(200.961 133.684)"/><rect class="b" width="168.939" height="0.738" transform="translate(47.637 48.738)"/><rect class="b" width="92.676" height="0.738" transform="translate(171.051 147.48)"/><rect class="b" width="108.951" height="0.738" transform="translate(0 210.76)"/></g></svg>