<svg xmlns="http://www.w3.org/2000/svg" width="32" height="32" viewBox="0 0 32 32"><defs><style>.a,.c{fill:none;}.a{stroke:#31305d;opacity:0;}.b{fill:#31305d;}.d{stroke:none;}</style></defs><g transform="translate(-1199 -359)"><g class="a" transform="translate(1199 359)"><rect class="d" width="32" height="32" rx="8"/><rect class="c" x="0.5" y="0.5" width="31" height="31" rx="7.5"/></g><g transform="translate(84)"><g transform="translate(1110 348)"><path class="b" d="M21.536,14.036,24.5,11.073V19.7a.9.9,0,1,0,1.8,0V11.073l2.964,2.964a.9.9,0,1,0,1.273-1.273l-4.5-4.5a.9.9,0,0,0-1.273,0l-4.5,4.5a.9.9,0,1,0,1.273,1.273Z" transform="translate(-4.4 11)"/><path class="b" d="M29.1,40a.9.9,0,0,0-.9.9v3.6a.9.9,0,0,1-.9.9H14.7a.9.9,0,0,1-.9-.9V40.9a.9.9,0,1,0-1.8,0v3.6a2.7,2.7,0,0,0,2.7,2.7H27.3A2.7,2.7,0,0,0,30,44.5V40.9A.9.9,0,0,0,29.1,40Z" transform="translate(0 -11.55)"/></g><rect class="c" width="24" height="24" transform="translate(1119 363)"/></g></g></svg>